<svg xmlns="http://www.w3.org/2000/svg" version="1.1" xmlns:xlink="http://www.w3.org/1999/xlink" xmlns:svgjs="http://svgjs.dev/svgjs" width="2000" height="358" viewBox="0 0 2000 358"><g transform="matrix(1,0,0,1,-1.2121212121212466,-0.45457112552008994)"><svg viewBox="0 0 396 71" data-background-color="#ffffff" preserveAspectRatio="xMidYMid meet" height="358" width="2000" xmlns="http://www.w3.org/2000/svg" xmlns:xlink="http://www.w3.org/1999/xlink"><g id="tight-bounds" transform="matrix(1,0,0,1,0.2400000000000091,0.09015237405566268)"><svg viewBox="0 0 395.52 70.81969525188866" height="70.81969525188866" width="395.52"><g><svg viewBox="0 0 530.2275913498403 94.93971590194843" height="70.81969525188866" width="395.52"><g><rect width="8.51916572917863" height="94.93971590194843" x="103.88694465422547" y="0" fill="#000000" opacity="1" stroke-width="0" stroke="transparent" fill-opacity="1" class="rect-qz-0" data-fill-palette-color="primary" rx="1%" id="qz-0" data-palette-color="#000000"></rect></g><g transform="matrix(1,0,0,1,134.7075913498403,0.2361684475172794)"><svg viewBox="0 0 395.52 94.46737900691387" height="94.46737900691387" width="395.52"><g id="textblocktransform"><svg viewBox="0 0 395.52 94.46737900691387" height="94.46737900691387" width="395.52" id="textblock"><g><svg viewBox="0 0 395.52 94.46737900691387" height="94.46737900691387" width="395.52"><g transform="matrix(1,0,0,1,0,0)"><svg width="395.52" viewBox="3.25 -37.5 159.09 38" height="94.46737900691387" data-palette-color="#000000"><path d="M31.65-34.1L28.5-34.1 28.5-3.4 31.65-3.4 31.65 0 21.35 0 21.35-3.4 24.4-3.4 24.4-17.7 10.5-17.7 10.5-3.4 13.55-3.4 13.55 0 3.25 0 3.25-3.4 6.4-3.4 6.4-34.1 3.25-34.1 3.25-37.5 13.55-37.5 13.55-34.1 10.5-34.1 10.5-21.05 24.4-21.05 24.4-34.1 21.35-34.1 21.35-37.5 31.65-37.5 31.65-34.1ZM58.1-37.5L58.1-34.1 45.85-21.9 52.3-21.9Q55.6-21.9 56.85-20.55L56.85-20.55Q58.05-19.25 58.05-16.05L58.05-16.05 58.05-6.7Q58.05-5.05 57.85-3.78 57.65-2.5 56.9-1.7L56.9-1.7Q55.45 0 51.15 0L51.15 0 43.55 0Q38.05 0 37.55-4.2L37.55-4.2Q37.4-5.45 37.4-6.85L37.4-6.85 37.4-9.5 41.05-9.5 41.05-3.1 54-3.1 54-18.65 41.05-18.65 41.05-21.9 53.45-34.1 41.05-34.1 41.05-30.6 37.4-30.6 37.4-37.5 58.1-37.5ZM62.1-3.4L64.9-3.4 71.2-12.95 65.45-21.6 62.5-21.6 62.5-25 67.3-25 73.4-16 79.09-25 84-25 84-21.6 81.2-21.6 75.45-12.95 81.7-3.4 84.5-3.4 84.5 0 79.8 0 73.4-9.95 67.05 0 62.1 0 62.1-3.4ZM89.24-37.5L107.09-37.5Q110.39-37.5 111.54-36.25L111.54-36.25Q112.69-35 112.69-31.3L112.69-31.3 112.69-27.65Q112.69-24.8 111.49-23.5L111.49-23.5Q110.89-22.85 109.92-22.25 108.94-21.65 107.54-20.8L107.54-20.8 96.49-13.9 96.49-3.4 99.74-3.4 99.74 0 89.24 0 89.24-3.4 92.39-3.4 92.39-34.05 89.24-34.05 89.24-37.5ZM109.04-25.65L109.04-34.05 96.49-34.05 96.49-17.9 109.04-25.65ZM132.84-3.4L135.99-3.4 135.99 0 118.59 0Q116.04 0 115.14-1L115.14-1Q114.34-1.9 114.34-4.4L114.34-4.4 114.34-6.25Q114.34-8.05 114.79-8.7L114.79-8.7Q115.44-9.65 117.74-11.05L117.74-11.05 128.74-17.9 128.74-21.6 118.94-21.6 118.94-18.7 115.74-18.7 115.74-25 128.24-25Q130.79-25 131.82-23.9 132.84-22.8 132.84-20.7L132.84-20.7 132.84-3.4ZM128.74-3.4L128.74-13.9 118.34-7.4 118.34-3.4 128.74-3.4ZM159.19-3.45L162.34-3.45 162.34 0 155.09 0 155.09-5.75 146.44-0.3Q144.89 0.5 143.51 0.5 142.14 0.5 141.31-0.5 140.49-1.5 140.49-2.8L140.49-2.8 140.49-20.3Q140.49-22.6 141.19-23.45L141.19-23.45Q142.39-25 144.99-25L144.99-25 155.09-25 155.09-34.1 151.79-34.1 151.79-37.5 159.19-37.5 159.19-3.45ZM155.09-9.75L155.09-21.6 144.49-21.6 144.49-3.15 155.09-9.75Z" opacity="1" transform="matrix(1,0,0,1,0,0)" fill="#000000" class="wordmark-text-0" data-fill-palette-color="primary" id="text-0"></path></svg></g></svg></g></svg></g></svg></g><g transform="matrix(1,0,0,1,0,0.2361684475172794)"><svg viewBox="0 0 81.58546368778927 94.46737900691387" height="94.46737900691387" width="81.58546368778927"><g><svg xmlns="http://www.w3.org/2000/svg" xmlns:xlink="http://www.w3.org/1999/xlink" version="1.1" x="0" y="0" viewBox="2.7 0.6 26.6 30.799999999999997" enable-background="new 0 0 32 32" xml:space="preserve" height="94.46737900691387" width="81.58546368778927" class="icon-icon-0" data-fill-palette-color="accent" id="icon-0"><g fill="#000000" data-fill-palette-color="accent"><g fill="#000000" data-fill-palette-color="accent"><path fill="#000000" d="M16 31.4L2.7 23.7V8.3L16 0.6l13.3 7.7v15.4L16 31.4zM4.2 22.8L16 29.6l11.8-6.8V9.2L16 2.4 4.2 9.2V22.8z" data-fill-palette-color="accent"></path></g></g></svg></g></svg></g></svg></g><defs></defs></svg><rect width="395.52" height="70.81969525188866" fill="none" stroke="none" visibility="hidden"></rect></g></svg></g></svg>